<svg xmlns="http://www.w3.org/2000/svg" version="1.1" xmlns:xlink="http://www.w3.org/1999/xlink">
    <symbol id="backbutton" viewBox="0 0 40 40">
        <path
            d="M21.1,34.4h-2.5c-0.7,0-1.3-0.2-1.8-0.6c-0.5-0.4-0.7-1-0.7-1.7V18.3l-5.8,5.8c-0.5,0.5-1.1,0.7-1.8,0.7 c-0.7,0-1.3-0.2-1.8-0.7l-1.5-1.5c-0.5-0.5-0.7-1.1-0.7-1.8c0-0.7,0.2-1.3,0.7-1.8L18,6.3c0.5-0.5,1.1-0.7,1.8-0.7 c0.7,0,1.3,0.2,1.8,0.7L34.4,19c0.5,0.5,0.7,1.1,0.7,1.8c0,0.7-0.2,1.3-0.7,1.8l-1.5,1.5c-0.5,0.5-1.1,0.7-1.8,0.7s-1.3-0.2-1.8-0.7 l-5.8-5.8v13.8c0,0.7-0.2,1.2-0.7,1.7C22.3,34.2,21.8,34.4,21.1,34.4z" />
    </symbol>
    <symbol id="info" viewBox="0 0 40 40">
        <path
            d="M28,31.4c-0.3-0.3-0.7-0.5-1.2-0.5h-1.6V16.1c0-0.4-0.2-0.8-0.5-1.2c-0.3-0.3-0.7-0.5-1.2-0.5h-9.8c-0.4,0-0.8,0.2-1.2,0.5 s-0.5,0.7-0.5,1.2v3.3c0,0.4,0.2,0.8,0.5,1.2c0.3,0.3,0.7,0.5,1.2,0.5h1.6v9.8h-1.6c-0.4,0-0.8,0.2-1.2,0.5s-0.5,0.7-0.5,1.2v3.3 c0,0.4,0.2,0.8,0.5,1.2s0.7,0.5,1.2,0.5h13.1c0.4,0,0.8-0.2,1.2-0.5s0.5-0.7,0.5-1.2v-3.3C28.5,32.1,28.3,31.7,28,31.4z M24.7,1.9 c-0.3-0.3-0.7-0.5-1.2-0.5H17c-0.4,0-0.8,0.2-1.2,0.5c-0.3,0.3-0.5,0.7-0.5,1.2V8c0,0.4,0.2,0.8,0.5,1.2c0.3,0.3,0.7,0.5,1.2,0.5 h6.5c0.4,0,0.8-0.2,1.2-0.5c0.3-0.3,0.5-0.7,0.5-1.2V3.1C25.2,2.6,25.1,2.2,24.7,1.9z" />
    </symbol>
    <symbol id="star" viewBox="0 0 40 40">
        <path
            d="M37.7,14l-11.4-1.7L21.1,2c-0.3-0.6-0.7-0.9-1.1-0.9S19.2,1.4,18.9,2l-5.1,10.4L2.3,14c-0.8,0.1-1.3,0.5-1.3,1 c0,0.3,0.2,0.7,0.6,1.1l8.3,8.1L8,35.6c0,0.2,0,0.4,0,0.5c0,0.3,0.1,0.6,0.2,0.8c0.2,0.2,0.4,0.3,0.7,0.3c0.3,0,0.6-0.1,0.9-0.3 L20,31.5l10.2,5.4c0.3,0.2,0.6,0.3,0.9,0.3c0.3,0,0.5-0.1,0.7-0.3c0.2-0.2,0.2-0.5,0.2-0.8c0-0.2,0-0.3,0-0.5l-2-11.4l8.3-8.1 c0.4-0.4,0.6-0.8,0.6-1.1C38.9,14.5,38.5,14.2,37.7,14z" />
    </symbol>
    <symbol id="paintbrush" viewBox="0 0 40 40">
        <path
            d="M30.79,3.55L18.33,14.86c-1.2,1.09-1.8,2.47-1.8,4.14c0,1.65,0.59,3.08,1.77,4.29s2.59,1.81,4.23,1.81 c1.58,0,2.99-0.59,4.26-1.78c1.73-1.6,4.76-6.5,9.08-14.69c0.59-1.15,0.88-2.13,0.88-2.95c0-0.91-0.34-1.67-1.03-2.28 S34.24,2.5,33.33,2.5C32.41,2.5,31.56,2.85,30.79,3.55z M13.14,22.9c-0.68,0.1-1.35,0.26-2.01,0.5s-1.24,0.54-1.72,0.93 c-0.48,0.38-0.93,0.88-1.36,1.48c-0.42,0.61-0.8,1.34-1.12,2.2c-0.18,0.48-0.54,0.72-1.07,0.72c-0.2,0-0.49-0.11-0.9-0.33 s-0.79-0.46-1.15-0.71s-0.77-0.54-1.21-0.87s-0.71-0.52-0.8-0.59c0,1.54,0.19,2.97,0.57,4.3s0.94,2.52,1.69,3.57 s1.74,1.88,2.98,2.49s2.66,0.91,4.26,0.91c2.8,0,5.07-0.87,6.81-2.62s2.58-4,2.53-6.78l-0.02-1.39c-1.08-0.29-2.06-0.78-2.94-1.48 s-1.57-1.55-2.08-2.54C14.63,22.73,13.81,22.8,13.14,22.9z" />
    </symbol>
    <symbol id="discord" viewBox="0 0 40 40">
        <path
            d="M33.2,8.3c-2.5-1.1-5.1-1.9-7.9-2.4c-0.3,0.6-0.7,1.4-1,2c-2.9-0.4-5.8-0.4-8.7,0c-0.3-0.6-0.7-1.4-1-2 c-2.8,0.5-5.4,1.3-7.9,2.4c-5,7.2-6.3,14.2-5.6,21.1c3.3,2.3,6.5,3.8,9.6,4.7c0.8-1,1.5-2.1,2.1-3.3c-1.1-0.4-2.2-0.9-3.2-1.5 c0.3-0.2,0.5-0.4,0.8-0.6c6.3,2.8,13,2.8,19.2,0c0.3,0.2,0.5,0.4,0.8,0.6c-1,0.6-2.1,1.1-3.2,1.5c0.6,1.1,1.3,2.2,2.1,3.3 c3.1-0.9,6.3-2.4,9.6-4.7C39.7,21.4,37.5,14.4,33.2,8.3z M13.7,25.1c-1.9,0-3.4-1.7-3.4-3.7s1.5-3.7,3.4-3.7c1.9,0,3.5,1.7,3.4,3.7 C17.1,23.4,15.6,25.1,13.7,25.1z M26.3,25.1c-1.9,0-3.4-1.7-3.4-3.7s1.5-3.7,3.4-3.7c1.9,0,3.5,1.7,3.4,3.7 C29.7,23.4,28.2,25.1,26.3,25.1z" />
    </symbol>
    <symbol id="socials" viewBox="0 0 40 40">
        <path
            d="M31.6,36.5H8.4c-1.7,0-3.1-1.4-3.1-3.1v-4.6c0-3.8,1.8-6.9,5.2-9c1.1-0.7,2.4-1.2,3.8-1.6 c-0.8-0.7-1.5-1.5-2-2.4c-0.8-1.3-1.2-2.9-1.2-4.4c0-4.9,4-8.9,8.9-8.9s8.9,4,8.9,8.9c0,1.6-0.4,3.1-1.2,4.4c-0.5,0.9-1.2,1.7-2,2.4 c1.4,0.4,2.7,1,3.8,1.6c3.4,2,5.2,5.1,5.2,9v4.6C34.7,35.1,33.3,36.5,31.6,36.5z M20,5.4c-3.3,0-6,2.7-6,6s2.7,6,6,6s6-2.7,6-6 S23.3,5.4,20,5.4z M8.2,28.8v4.6c0,0.1,0.1,0.2,0.2,0.2h23.2c0.1,0,0.2-0.1,0.2-0.2v-4.6c0-3-1.4-5.2-4.2-6.7 c-2-1.1-4.9-1.8-7.7-1.8C15.6,20.3,8.2,22.1,8.2,28.8z" />
    </symbol>
    <symbol id="instagram" viewBox="0 0 40 40">
        <path
            d="M20,7c4.2,0,4.7,0,6.3,0.1c1.5,0.1,2.3,0.3,3,0.5C30,8,30.5,8.3,31.1,8.9c0.5,0.5,0.9,1.1,1.2,1.8c0.2,0.5,0.5,1.4,0.5,3 C33,15.3,33,15.8,33,20s0,4.7-0.1,6.3c-0.1,1.5-0.3,2.3-0.5,3c-0.3,0.7-0.6,1.2-1.2,1.8c-0.5,0.5-1.1,0.9-1.8,1.2 c-0.5,0.2-1.4,0.5-3,0.5C24.7,33,24.2,33,20,33s-4.7,0-6.3-0.1c-1.5-0.1-2.3-0.3-3-0.5C10,32,9.5,31.7,8.9,31.1 C8.4,30.6,8,30,7.7,29.3c-0.2-0.5-0.5-1.4-0.5-3C7,24.7,7,24.2,7,20s0-4.7,0.1-6.3c0.1-1.5,0.3-2.3,0.5-3C8,10,8.3,9.5,8.9,8.9 C9.4,8.4,10,8,10.7,7.7c0.5-0.2,1.4-0.5,3-0.5C15.3,7.1,15.8,7,20,7z M20,4.3c-4.3,0-4.8,0-6.5,0.1c-1.6,0-2.8,0.3-3.8,0.7 C8.7,5.5,7.8,6,6.9,6.9C6,7.8,5.5,8.7,5.1,9.7c-0.4,1-0.6,2.1-0.7,3.8c-0.1,1.7-0.1,2.2-0.1,6.5s0,4.8,0.1,6.5 c0,1.6,0.3,2.8,0.7,3.8c0.4,1,0.9,1.9,1.8,2.8c0.9,0.9,1.7,1.4,2.8,1.8c1,0.4,2.1,0.6,3.8,0.7c1.6,0.1,2.2,0.1,6.5,0.1 s4.8,0,6.5-0.1c1.6-0.1,2.9-0.3,3.8-0.7c1-0.4,1.9-0.9,2.8-1.8c0.9-0.9,1.4-1.7,1.8-2.8c0.4-1,0.6-2.1,0.7-3.8 c0.1-1.6,0.1-2.2,0.1-6.5s0-4.8-0.1-6.5c-0.1-1.6-0.3-2.9-0.7-3.8c-0.4-1-0.9-1.9-1.8-2.8c-0.9-0.9-1.7-1.4-2.8-1.8 c-1-0.4-2.1-0.6-3.8-0.7C24.8,4.3,24.3,4.3,20,4.3L20,4.3L20,4.3z" />
        <path
            d="M20,11.9c-4.5,0-8.1,3.7-8.1,8.1s3.7,8.1,8.1,8.1s8.1-3.7,8.1-8.1S24.5,11.9,20,11.9z M20,25.2c-2.9,0-5.2-2.3-5.2-5.2 s2.3-5.2,5.2-5.2s5.2,2.3,5.2,5.2S22.9,25.2,20,25.2z" />
        <path d="M30.6,11.6c0,1-0.8,1.9-1.9,1.9c-1,0-1.9-0.8-1.9-1.9s0.8-1.9,1.9-1.9C29.8,9.7,30.6,10.5,30.6,11.6z" />
    </symbol>
    <symbol id="steam" viewBox="0 0 40 40">
        <path
            d="M32.3,14.4c0,1.2-0.4,2.2-1.3,3.1s-1.9,1.3-3.1,1.3s-2.2-0.4-3.1-1.3c-0.9-0.9-1.3-1.9-1.3-3.1s0.4-2.2,1.3-3.1 c0.9-0.9,1.9-1.3,3.1-1.3s2.2,0.4,3.1,1.3S32.3,13.2,32.3,14.4z M18.5,27.6c0-1.2-0.4-2.3-1.3-3.2c-0.9-0.9-1.9-1.3-3.2-1.3 c-0.3,0-0.6,0-1,0.1l1.9,0.8c0.9,0.4,1.6,1,2,1.9c0.4,0.9,0.4,1.8,0,2.7c-0.4,0.9-1,1.6-1.9,1.9c-0.9,0.4-1.8,0.4-2.7,0 c-0.3-0.1-0.6-0.2-1.1-0.4c-0.5-0.2-0.9-0.3-1.1-0.4c0.4,0.7,0.9,1.3,1.6,1.7c0.7,0.4,1.5,0.7,2.3,0.7c1.2,0,2.3-0.4,3.2-1.3 C18.1,29.9,18.5,28.9,18.5,27.6L18.5,27.6z M33.3,14.4c0-1.5-0.5-2.8-1.6-3.8C30.7,9.5,29.4,9,27.9,9c-1.5,0-2.8,0.5-3.9,1.6 c-1.1,1.1-1.6,2.3-1.6,3.8c0,1.5,0.5,2.8,1.6,3.9c1.1,1.1,2.4,1.6,3.9,1.6c1.5,0,2.8-0.5,3.8-1.6C32.8,17.2,33.3,15.9,33.3,14.4z M36,14.4c0,2.2-0.8,4.2-2.4,5.7c-1.6,1.6-3.5,2.4-5.7,2.4l-7.8,5.7c-0.1,1.5-0.8,2.8-1.9,3.9s-2.5,1.6-4.1,1.6 c-1.4,0-2.7-0.5-3.8-1.4s-1.8-2-2.1-3.4L4,27.3v-7.7l6.9,2.8c0.9-0.6,2-0.9,3.1-0.9c0.2,0,0.4,0,0.6,0l5.1-7.3 c0-2.2,0.8-4.1,2.4-5.7s3.5-2.4,5.7-2.4c2.2,0,4.2,0.8,5.7,2.4C35.2,10.3,36,12.2,36,14.4z" />
    </symbol>
    <symbol id="youtubealt" viewBox="0 0 40 40">
        <path
            d="M37.6,27.1c0,0-0.3,2.4-1.4,3.5c-1.4,1.4-2.9,1.4-3.6,1.5c-5,0.4-12.4,0.4-12.4,0.4s-9.2-0.1-12.1-0.4 c-0.8-0.1-2.6-0.1-3.9-1.5c-1.1-1.1-1.4-3.5-1.4-3.5s-0.4-2.9-0.4-5.7v-2.7c0-2.9,0.4-5.7,0.4-5.7s0.3-2.4,1.4-3.5 C5.5,8,7,8,7.7,7.9c5-0.4,12.4-0.4,12.4-0.4h0c0,0,7.5,0,12.4,0.4C33.3,8,34.8,8,36.2,9.4c1.1,1.1,1.4,3.5,1.4,3.5s0.4,2.9,0.4,5.7 v2.7C37.9,24.2,37.6,27.1,37.6,27.1z M16.5,14.6l0,9.9l9.6-5L16.5,14.6z" />
    </symbol>
    <symbol id="ubiconnect" viewBox="0 0 48 48">
        <path
            d="M23.078,4C15.035,4,8.071,8.224,4.449,15.298l1.741,0.85c-2.525,4.801-2.53,10.741-1.002,14.747 l0.011-0.004c0.816,2.336,2.155,4.78,4.126,6.935C11.909,40.651,16.526,44,23.898,44c0.068,0,0.136,0,0.204-0.001v0 c8.231-0.007,19.81-6.075,19.81-19.556C43.912,11.022,33.431,4,23.078,4z M8.999,29.406c-0.183,0.027-0.382,0.024-0.565,0.005 c-0.582-1.778-0.548-3.458-0.389-4.731c0.623-4.982,5.116-10.133,12.002-10.133c0.001,0,0.003,0,0.004,0 c6.842,0.001,9.828,4.313,10.919,7.552c-0.135,0.078-0.284,0.156-0.428,0.227c-0.199-0.321-0.422-0.638-0.703-0.945 c-1.171-1.276-4.458-4.256-9.837-4.08C13.733,17.472,9.247,22.505,8.999,29.406z M27.973,30.924 c-1.062,1.355-2.481,2.153-4.034,2.252c-5.635-0.035-5.801-4.642-5.801-5.17c0-2.184,1.643-5.259,5.297-5.259 c1.268,0,2.351,0.507,3.132,1.301c0.815,0.829,1.146,1.947,0.951,3.184c-0.235,1.489-1.098,2.811-1.112,2.83L27.973,30.924z M24.087,40.551c-5.828,0-11.459-4.962-11.588-10.209c-0.083-3.365,1.197-6.949,4.077-8.623c0.137,0.098,0.25,0.234,0.324,0.416 c-1.475,1.631-2.293,3.762-2.293,5.871c0,4.148,2.935,8.614,9.379,8.621c0.004,0,0.009,0,0.013,0c0.029,0,0.057-0.004,0.087-0.004 l0,0.001c0.006,0,0.013-0.002,0.019-0.002c2.86-0.027,5.435-1.112,7.453-3.155c2.298-2.324,3.596-5.646,3.475-8.885 c-0.195-5.212-4.435-13.481-14.98-13.483c-0.001,0-0.002,0-0.004,0c-4.211,0-7.692,1.445-10.323,3.609 c-0.267-0.095-0.429-0.253-0.517-0.435c3.229-4.367,8.139-6.825,13.87-6.825c8.598,0,17.303,5.837,17.303,16.995 C40.381,35.554,30.853,40.551,24.087,40.551z" />
    </symbol>
    <symbol id="fandom" viewBox="0 0 40 40">
        <path
            d="M35.4,20c0,0.3-0.1,0.6-0.3,0.8l-14,14c-0.2,0.2-0.5,0.3-0.8,0.3c-0.3,0-0.6-0.1-0.8-0.3l-1-0.9 c-0.2-0.2-0.2-0.4,0-0.6c0,0,0,0,0,0l16.1-16.1c0.3-0.3,0.7-0.1,0.7,0.3L35.4,20L35.4,20z M17.4,30.5l-0.8,0.7 c-0.3,0.2-0.7,0.2-0.9,0L5.1,20.8c-0.3-0.3-0.4-0.6-0.4-1v-1.9c0-0.7,0.9-1,1.4-0.6l11.3,11c0.2,0.2,0.5,0.6,0.5,1.1 C17.8,29.7,17.8,30.2,17.4,30.5L17.4,30.5z M7.9,10.5l3.7-3.6c0.2-0.2,0.4-0.2,0.6,0l12.3,12.1c1.3,1.3,1.3,3.4,0,4.6c0,0,0,0,0,0 l-3.7,3.6c-0.2,0.2-0.4,0.2-0.6,0L7.9,15.2c-0.6-0.6-1-1.5-1-2.3C6.9,11.9,7.3,11.1,7.9,10.5L7.9,10.5z M22.4,12.5l3.8-3.8 C27,8,28.1,7.7,29.1,7.8c0.8,0.1,1.4,0.5,2,1l3.9,3.8c0.2,0.2,0.2,0.4,0,0.6c0,0,0,0,0,0l-5.9,5.8c-0.2,0.2-0.4,0.2-0.6,0l-6-5.9 C22.2,13,22.2,12.7,22.4,12.5C22.4,12.5,22.4,12.5,22.4,12.5z M37.6,11.8l-8.5-8.6c-0.4-0.4-0.9-0.4-1.3,0L21,10 c-0.5,0.5-1.4,0.5-1.9,0l-6.8-6.7C12,3,11.5,3,11.1,3.3l-8.7,8.5c-0.3,0.3-0.5,0.7-0.5,1.1v8c0,0.4,0.2,0.8,0.5,1.1l17,16.7 c0.4,0.3,0.9,0.3,1.3,0l17-16.7c0.3-0.3,0.5-0.7,0.5-1.1v-8C38.1,12.5,37.9,12.1,37.6,11.8L37.6,11.8z" />
    </symbol>
    <symbol id="gamejolt" viewBox="0 0 40 40">
        <path
            d="M3.5,25c0-1.3,0-2.6,0-4c0.7,0,1.3,0,2,0c0-1.3,0-2.7,0-4c0.7,0,1.3,0,2,0c0-1.3,0-2.7,0-4c0.7,0,1.3,0,2,0c0-1.3,0-2.6,0-4 c0.7,0,1.3,0,2,0c0-0.1,0-0.1,0-0.2c0-1.2,0-2.4,0-3.6c0-0.1,0-0.1,0-0.2c8,0,15.9,0,23.9,0c0,0.7,0,1.3,0,2c-0.1,0-0.1,0-0.2,0 c-0.5,0-1.1,0-1.6,0c-0.1,0-0.1,0-0.2,0c0,0.7,0,1.3,0,2c-0.7,0-1.3,0-2,0c0,0.7,0,1.3,0,2c-0.7,0-1.3,0-2,0c0,0.1,0,0.1,0,0.2 c0,0.6,0,1.1,0,1.7c0,0.1,0,0.2-0.2,0.2c-0.6,0-1.1,0-1.7,0c-0.1,0-0.1,0-0.2,0c0,0.7,0,1.3,0,2c2,0,4,0,6,0c0,0.7,0,1.3,0,2 c-0.7,0-1.3,0-2,0c0,0.7,0,1.3,0,2c-0.7,0-1.3,0-2,0c0,0.7,0,1.3,0,2c-0.7,0-1.3,0-2,0c0,0.7,0,1.3,0,2c-0.7,0-1.3,0-2,0 c0,0.7,0,1.3,0,2c-0.7,0-1.3,0-2,0c0,0.7,0,1.3,0,2c-0.7,0-1.3,0-2,0c0,0.7,0,1.3,0,2c-0.7,0-1.3,0-2,0c0,0.7,0,1.3,0,2 c-0.7,0-1.3,0-2,0c0,0.7,0,1.3,0,2c-0.7,0-1.3,0-2,0c0,0.7,0,1.3,0,2c-0.7,0-1.3,0-2,0c0,0.7,0,1.3,0,2c-0.7,0-1.3,0-2,0 c0,0.1,0,0.3,0,0.4c0,0.5,0,1.1,0,1.6c-0.7,0-1.4,0-2,0c0-0.1,0-0.1,0-0.2c0-0.6,0-1.1,0-1.7c0-0.1,0-0.1,0-0.2c0.7,0,1.3,0,2,0 c0-1.3,0-2.6,0-4c0.7,0,1.3,0,2,0c0-1.3,0-2.7,0-4c0.7,0,1.3,0,2,0c0-1.3,0-2.6,0-4c-0.1,0-0.1,0-0.2,0c-3.8,0-7.7,0-11.5,0 C3.7,25.1,3.6,25.1,3.5,25z" />
    </symbol>
    <symbol id="github" viewBox="0 0 40 40">
        <path
            d="M36,20.3c0,3.5-1,6.6-3.1,9.4c-2,2.8-4.7,4.7-7.9,5.8c-0.4,0.1-0.6,0-0.8-0.1c-0.2-0.2-0.3-0.4-0.3-0.6v-4.4 c0-1.3-0.4-2.3-1.1-3c0.8-0.1,1.5-0.2,2.1-0.4c0.6-0.2,1.3-0.4,2-0.8c0.7-0.4,1.2-0.8,1.7-1.4c0.5-0.5,0.8-1.3,1.1-2.2 s0.4-2,0.4-3.1c0-1.7-0.5-3.1-1.6-4.3c0.5-1.3,0.5-2.7-0.2-4.2c-0.4-0.1-1,0-1.7,0.2c-0.7,0.3-1.4,0.6-1.9,0.9L24,12.5 c-1.3-0.4-2.6-0.5-4-0.5s-2.7,0.2-4,0.5c-0.2-0.2-0.5-0.3-0.9-0.6c-0.4-0.2-0.9-0.5-1.7-0.8c-0.8-0.3-1.4-0.4-1.8-0.3 c-0.6,1.6-0.7,3-0.1,4.2c-1.1,1.2-1.6,2.6-1.6,4.3c0,1.2,0.1,2.2,0.4,3.1s0.6,1.6,1.1,2.2s1,1,1.7,1.4c0.7,0.4,1.3,0.6,2,0.8 c0.6,0.2,1.3,0.3,2.1,0.4c-0.6,0.5-0.9,1.2-1,2.1c-0.3,0.1-0.6,0.2-0.9,0.3c-0.3,0.1-0.7,0.1-1.2,0.1c-0.5,0-0.9-0.1-1.4-0.4 c-0.5-0.3-0.8-0.7-1.2-1.3c-0.3-0.4-0.6-0.8-1-1.1c-0.4-0.3-0.8-0.4-1-0.5L9,26.5c-0.3,0-0.5,0-0.6,0.1c-0.1,0.1-0.1,0.1-0.1,0.2 c0,0.1,0.1,0.2,0.2,0.3c0.1,0.1,0.2,0.2,0.3,0.2l0.1,0.1c0.3,0.1,0.6,0.4,0.9,0.8s0.5,0.7,0.7,1.1l0.2,0.5c0.2,0.5,0.5,1,0.9,1.3 c0.4,0.3,0.9,0.5,1.4,0.6c0.5,0.1,1,0.1,1.4,0.1c0.5,0,0.9,0,1.2-0.1l0.5-0.1c0,0.5,0,1.1,0,1.9c0,0.7,0,1.1,0,1.1 c0,0.2-0.1,0.5-0.3,0.6c-0.2,0.2-0.5,0.2-0.8,0.1c-3.2-1.1-5.8-3-7.9-5.8S4,23.8,4,20.3c0-2.9,0.7-5.6,2.1-8S9.5,7.8,12,6.4 s5.1-2.1,8-2.1s5.6,0.7,8,2.1s4.4,3.4,5.8,5.8S36,17.4,36,20.3L36,20.3z" />
    </symbol>
    <symbol id="gogcom" viewBox="0 0 40 40">
        <path
            d="M1.43,33.36c0,1.18,0.96,2.14,2.14,2.14h7.86v-2.86H5c-0.39,0-0.71-0.32-0.71-0.71v-4.29c0-0.39,0.32-0.71,0.71-0.71h6.43 v-2.86H3.57c-1.18,0-2.14,0.96-2.14,2.14V33.36z M12.86,7.64c0-1.18-0.96-2.14-2.14-2.14H3.57c-1.18,0-2.14,0.96-2.14,2.14v7.14 c0,1.18,0.96,2.14,2.14,2.14h5v-2.86H5c-0.39,0-0.71-0.32-0.71-0.71V9.07c0-0.39,0.32-0.71,0.71-0.71h4.29 C9.68,8.36,10,8.68,10,9.07v8.57c0,0.39-0.32,0.71-0.71,0.71H1.43v2.86h9.28c1.18,0,2.14-0.96,2.14-2.14l0,0V7.64z M12.86,26.21 v7.14c0,1.18,0.96,2.14,2.14,2.14h7.14c1.18,0,2.14-0.96,2.14-2.14v-7.14c0-1.18-0.96-2.14-2.14-2.14H15 C13.82,24.07,12.86,25.03,12.86,26.21z M25.71,7.64c0-1.18-0.96-2.14-2.14-2.14h-7.14c-1.18,0-2.14,0.96-2.14,2.14v7.14 c0,1.18,0.96,2.14,2.14,2.14h7.14c1.18,0,2.14-0.96,2.14-2.14V7.64z M38.57,7.64c0-1.18-0.96-2.14-2.14-2.14h-7.14 c-1.18,0-2.14,0.96-2.14,2.14v7.14c0,1.18,0.96,2.14,2.14,2.14h5v-2.86h-3.57c-0.39,0-0.71-0.32-0.71-0.71V9.07 c0-0.39,0.32-0.71,0.71-0.71H35c0.39,0,0.71,0.32,0.71,0.71v8.57c0,0.39-0.32,0.71-0.71,0.71h-7.86v2.86h9.28 c1.18,0,2.14-0.96,2.14-2.14l0,0V7.64z M38.57,24.07H27.86c-1.18,0-2.14,0.96-2.14,2.14v9.29h2.86v-7.86c0-0.39,0.32-0.71,0.71-0.71 h1.43v8.57h2.86v-8.57h2.14v8.57h2.86V24.07z M22.14,14.07h-4.29c-0.39,0-0.71-0.32-0.71-0.71V9.07c0-0.39,0.32-0.71,0.71-0.71h4.29 c0.39,0,0.71,0.32,0.71,0.71v4.29C22.86,13.75,22.54,14.07,22.14,14.07z M16.43,26.93h4.29c0.39,0,0.71,0.32,0.71,0.71v4.29 c0,0.39-0.32,0.71-0.71,0.71h-4.29c-0.39,0-0.71-0.32-0.71-0.71v-4.29C15.71,27.25,16.03,26.93,16.43,26.93z" />
    </symbol>
    <symbol id="itchio" viewBox="0 0 40 40">
        <path
            d="M35.9,31.9c-2.8,0-5.8-2.5-7.2-5.8H11.3c-1.4,3.3-4.4,5.8-7.2,5.8c-3.2,0-4.8-3.3-3.8-7.2l2.6-9.5 c1.1-4,4.5-7.2,7.7-7.2c2,0,3.4,1.3,3.9,3.2h11c0.5-2,1.9-3.2,3.9-3.2c3.2,0,6.6,3.3,7.7,7.2l2.6,9.5C40.7,28.7,39,31.9,35.9,31.9z M23.5,16.4l-3.7-4l-3.8,4l-3.7,4H16v4.1h7.3v-4.1h3.9L23.5,16.4z" />
    </symbol>
    <symbol id="osu" viewBox="0 0 40 40">
        <path
            d="M20,38.5C9.8,38.5,1.5,30.2,1.5,20S9.8,1.5,20,1.5S38.5,9.8,38.5,20S30.2,38.5,20,38.5z M20,3.5 C10.9,3.5,3.5,10.9,3.5,20S10.9,36.5,20,36.5S36.5,29.1,36.5,20S29.1,3.5,20,3.5z M32.5,17.5l-0.1,3h-2.1l0.1-1.1 c0-0.6-0.1-2.4-0.1-4l-0.1-2.9l0.2-0.1c0.3-0.1,1.8-0.1,2.1,0c0.2,0.1,0.2,0.1,0.1,1.1C32.6,14,32.6,15.8,32.5,17.5z M24.3,24.3 c-1.2-0.2-2.1-0.8-2.5-1.8l-0.3-0.6v-3.1v-3.1h2.3v2.8c0,2.6,0.1,2.9,0.2,3.2c0.3,0.6,0.7,0.8,1.7,0.8c0.4,0,0.9,0,0.9-0.1 c0.1-0.1,0.1-2.7,0.1-4.8v-2h2.1l0.1,0.9c0,0.5,0.1,2.4,0.1,4.1v3.2l-0.9,0.2C27,24.4,25.2,24.4,24.3,24.3z M17.2,24.4 c-0.6,0.1-1.1,0-1.2,0c-0.1,0-0.6-0.1-0.9-0.2c-0.6-0.1-0.6-0.1-0.6-0.4c0.1-0.6,0.4-1.3,0.4-1.3c0.1,0,0.3,0,0.6,0.1 c0.7,0.2,1.7,0.3,2.2,0.1c0.6-0.1,0.9-0.4,0.9-0.8c0-0.5-0.3-0.7-1.4-1.1c-1.8-0.6-2.3-1-2.5-2.1c-0.1-0.6,0.1-1.3,0.4-1.8 c0.4-0.6,1.3-1,2.1-1.1c0.8-0.1,2.1,0,2.8,0.2c0.4,0.1,0.4,0.1,0.4,0.5c0,0.2-0.1,0.6-0.1,0.8l-0.1,0.4l-0.6-0.2 c-0.5-0.1-0.9-0.2-1.4-0.1c-0.9,0.1-1.1,0.2-1.1,0.8c0,0.4,0.1,0.5,1.6,1c1.1,0.4,1.5,0.6,1.8,1.1c0.5,0.7,0.5,1.9,0,2.7 C19.8,23.8,18.8,24.4,17.2,24.4z M11.7,24.1c-0.8,0.2-2.3,0.4-2.9,0.1c-1.6-0.4-2.6-1.5-2.8-3.3c-0.4-2.3,0.4-4.2,2.2-5.1 c0.7-0.4,2.3-0.4,3.2-0.1c1.1,0.4,2,1.1,2.5,2.3c0.3,0.7,0.4,2.3,0.2,3.2C13.7,22.5,12.8,23.7,11.7,24.1z M11.7,19.7 c0-0.9-0.1-1.1-0.3-1.5c-0.3-0.6-0.7-0.8-1.5-0.8c-1,0-1.5,0.6-1.7,1.9c-0.1,0.9,0,2,0.3,2.6c0.3,0.6,0.7,0.8,1.3,0.8 c0.3,0.1,0.7,0,0.9-0.1C11.5,22.1,11.7,21.3,11.7,19.7z M31.5,21.8c0.9,0,1.1,0,1.1,0.1c0.1,0.2,0.1,2.1,0,2.2 c-0.1,0.2-1.7,0.3-2.1,0.1l-0.3-0.1v-1.1c0-0.7,0-1.1,0.1-1.2C30.4,21.8,30.6,21.8,31.5,21.8z" />
    </symbol>
    <symbol id="pinterest" viewBox="0 0 40 40">
        <path
            d="M35.3,20c0,2.8-0.7,5.4-2.1,7.7c-1.4,2.4-3.3,4.2-5.6,5.6c-2.4,1.4-4.9,2.1-7.7,2.1c-1.5,0-2.9-0.2-4.4-0.6 c0.8-1.2,1.3-2.3,1.6-3.3c0.1-0.5,0.5-1.9,1.1-4.2c0.3,0.5,0.8,1,1.5,1.4c0.7,0.4,1.5,0.6,2.3,0.6c1.6,0,3.1-0.5,4.3-1.4 c1.3-0.9,2.3-2.2,3-3.8c0.7-1.6,1-3.4,1-5.4c0-1.5-0.4-3-1.2-4.3c-0.8-1.3-2-2.4-3.5-3.3c-1.5-0.8-3.2-1.3-5.1-1.3 c-1.4,0-2.7,0.2-3.9,0.6c-1.2,0.4-2.3,0.9-3.1,1.5c-0.9,0.6-1.6,1.4-2.2,2.2c-0.6,0.8-1.1,1.7-1.3,2.6c-0.3,0.9-0.4,1.8-0.4,2.7 c0,1.4,0.3,2.6,0.8,3.7c0.5,1.1,1.3,1.8,2.3,2.2c0.4,0.2,0.7,0,0.8-0.4c0-0.1,0.1-0.3,0.2-0.6c0.1-0.3,0.1-0.5,0.2-0.6 c0.1-0.3,0-0.6-0.2-0.9c-0.7-0.8-1-1.8-1-3c0-2,0.7-3.8,2.1-5.2c1.4-1.5,3.2-2.2,5.5-2.2c2,0,3.6,0.5,4.7,1.6 c1.1,1.1,1.7,2.5,1.7,4.3c0,2.3-0.5,4.2-1.4,5.8s-2.1,2.4-3.5,2.4c-0.8,0-1.5-0.3-2-0.9c-0.5-0.6-0.6-1.3-0.5-2.1 c0.1-0.5,0.3-1.1,0.5-1.9c0.2-0.8,0.4-1.5,0.6-2.1c0.2-0.6,0.2-1.1,0.2-1.5c0-0.7-0.2-1.2-0.5-1.7c-0.4-0.4-0.9-0.7-1.5-0.7 c-0.8,0-1.5,0.4-2.1,1.1c-0.6,0.8-0.9,1.7-0.9,2.9c0,1,0.2,1.8,0.5,2.5l-2,8.4c-0.2,0.9-0.3,2.1-0.3,3.6c-2.8-1.2-5-3.1-6.7-5.6 S4.4,23.1,4.4,20c0-2.8,0.7-5.4,2.1-7.7S9.7,8,12.1,6.6s4.9-2.1,7.7-2.1c2.8,0,5.4,0.7,7.7,2.1s4.2,3.3,5.6,5.6 C34.6,14.6,35.3,17.2,35.3,20L35.3,20z" />
    </symbol>
    <symbol id="roblox" viewBox="0 0 40 40">
        <path d="M10,3L3,30l27,7l7-27L10,3z M18,16.7l5.3,1.4L22,23.3L16.7,22L18,16.7z" />
    </symbol>
    <symbol id="spotify" viewBox="0 0 40 40">
        <path
            d="M26.9,26.3c0-0.4-0.2-0.8-0.6-1c-2.6-1.5-5.6-2.3-9-2.3c-1.8,0-3.7,0.2-5.8,0.7c-0.6,0.1-0.8,0.5-0.8,1 c0,0.3,0.1,0.5,0.3,0.7c0.2,0.2,0.4,0.3,0.7,0.3c0.1,0,0.3-0.1,0.7-0.2c1.8-0.4,3.4-0.5,4.9-0.5c3,0,5.7,0.7,8,2.1 c0.3,0.1,0.5,0.2,0.7,0.2c0.3,0,0.5-0.1,0.7-0.3C26.8,26.8,26.9,26.6,26.9,26.3L26.9,26.3z M28.8,22c0-0.5-0.2-0.9-0.7-1.2 c-3.2-1.9-6.8-2.8-11-2.8c-2,0-4.1,0.3-6.1,0.8c-0.6,0.2-1,0.6-1,1.3c0,0.3,0.1,0.6,0.4,0.9c0.2,0.2,0.5,0.4,0.9,0.4 c0.1,0,0.3-0.1,0.7-0.2c1.6-0.4,3.3-0.7,5-0.7c3.7,0,7,0.8,9.8,2.5c0.3,0.2,0.6,0.3,0.8,0.3c0.3,0,0.6-0.1,0.9-0.4 C28.7,22.6,28.8,22.3,28.8,22L28.8,22z M31,17c0-0.6-0.3-1.1-0.8-1.4c-1.7-1-3.6-1.7-5.9-2.2c-2.2-0.5-4.5-0.8-6.9-0.8 c-2.7,0-5.2,0.3-7.3,0.9c-0.3,0.1-0.6,0.3-0.8,0.5c-0.2,0.2-0.3,0.6-0.3,1c0,0.4,0.1,0.8,0.4,1c0.3,0.3,0.6,0.4,1,0.4 c0.1,0,0.4-0.1,0.8-0.2c1.8-0.5,3.8-0.7,6.2-0.7c2.1,0,4.2,0.2,6.2,0.7c2,0.5,3.7,1.1,5.1,1.9c0.3,0.2,0.5,0.2,0.8,0.2 c0.4,0,0.7-0.1,1-0.4C30.8,17.8,31,17.4,31,17L31,17z M35.1,20c0,2.8-0.7,5.4-2.1,7.7c-1.4,2.4-3.3,4.2-5.6,5.6 c-2.4,1.4-4.9,2.1-7.7,2.1c-2.8,0-5.4-0.7-7.7-2.1c-2.4-1.4-4.2-3.3-5.6-5.6S4.2,22.8,4.2,20s0.7-5.4,2.1-7.7S9.5,8,11.9,6.6 s4.9-2.1,7.7-2.1c2.8,0,5.4,0.7,7.7,2.1s4.2,3.3,5.6,5.6C34.4,14.6,35.1,17.2,35.1,20z" />
    </symbol>
    <symbol id="tetrio" viewBox="0 0 40 40">
        <path
            d="M31.7,26.9V15.2h-5.9V9.3h5.9h5.2h0.6v17.6H31.7z M31.6,32.8h-5.9h-5.2h-0.6V15.2h5.8v11.7h5.9V32.8z M14.3,38.4h-6V9.3H2.5V3.6h17.6v5.8h-5.8V38.4z M18.9,38.4h-3.7V15.2h3.7V38.4z" />
    </symbol>
    <symbol id="twitch" viewBox="0 0 40 40">
        <path
            d="M20,13.9v8.4h-2.8v-8.4H20z M27.7,13.9v8.4h-2.8v-8.4H27.7z M27.7,28.5l4.9-4.9V8.3h-23v20.2h6.3v4.2l4.2-4.2 C20,28.5,27.7,28.5,27.7,28.5z M35.4,5.5v19.6l-8.4,8.4h-6.3l-4.2,4.2h-4.2v-4.2H4.6V11.1l2.1-5.6H35.4L35.4,5.5z" />
    </symbol>
    <symbol id="twitter" viewBox="0 0 40 40">
        <path
            d="M36.3,10.2c-1,1.3-2.1,2.5-3.4,3.5c0,0.2,0,0.4,0,1c0,1.7-0.2,3.6-0.9,5.3c-0.6,1.7-1.2,3.5-2.4,5.1 c-1.1,1.5-2.3,3.1-3.7,4.3c-1.4,1.2-3.3,2.3-5.3,3c-2.1,0.8-4.2,1.2-6.6,1.2c-3.6,0-7-1-10.2-3c0.4,0,1.1,0.1,1.5,0.1 c3.1,0,5.9-1,8.2-2.9c-1.4,0-2.7-0.4-3.8-1.3c-1.2-1-1.9-2-2.2-3.3c0.4,0.1,1,0.1,1.2,0.1c0.6,0,1.2-0.1,1.7-0.2 c-1.4-0.3-2.7-1.1-3.7-2.3s-1.4-2.6-1.4-4.2v-0.1c1,0.6,2,0.9,3,0.9c-1-0.6-1.5-1.3-2.2-2.4c-0.6-1-0.9-2.1-0.9-3.3s0.3-2.3,1-3.4 c1.5,2.1,3.6,3.6,6,4.9s4.9,2,7.6,2.1c-0.1-0.6-0.1-1.1-0.1-1.4c0-1.8,0.8-3.5,2-4.7c1.2-1.2,2.9-2,4.7-2c2,0,3.6,0.8,4.8,2.1 c1.4-0.3,2.9-0.9,4.2-1.5c-0.4,1.5-1.4,2.7-2.9,3.6C33.8,11.2,35.1,10.9,36.3,10.2L36.3,10.2z" />
    </symbol>
    <symbol id="xbox" viewBox="0 0 40 40">
        <path
            d="M18.3,37.4c-2.7-0.3-5.4-1.2-7.8-2.8c-2-1.3-2.4-1.8-2.4-2.9c0-2.1,2.3-5.8,6.3-10c2.3-2.4,5.4-5.2,5.7-5.1 c0.7,0.1,5.9,5.3,7.9,7.7c3.1,3.8,4.6,7,3.8,8.4c-0.6,1.1-4,3.1-6.5,3.9C23.3,37.4,20.5,37.7,18.3,37.4L18.3,37.4z M5.4,29.6 c-1.6-2.5-2.5-5-2.9-8.5c-0.1-1.2-0.1-1.9,0.3-4.3c0.5-3,2.2-6.5,4.3-8.6c0.9-0.9,1-0.9,2-0.6C10.4,8,11.8,9,14,10.9l1.3,1.1 l-0.7,0.8c-3.2,3.9-6.5,9.5-7.8,12.9c-0.7,1.9-1,3.7-0.7,4.5C6.3,30.8,6.1,30.7,5.4,29.6z M34.1,30c0.2-0.8,0-2.2-0.5-3.7 c-1-3.2-4.5-9-7.7-13l-1-1.3l1.1-1c1.4-1.3,2.4-2.1,3.5-2.7c0.8-0.5,2-1,2.5-1c0.3,0,1.4,1.2,2.3,2.4c1.4,2,2.4,4.3,2.9,6.8 c0.3,1.6,0.4,5,0.1,6.6c-0.3,1.3-0.8,3-1.3,4.1c-0.4,0.9-1.4,2.5-1.8,3.1C34,30.7,34,30.7,34.1,30L34.1,30z M18.5,6.8 c-1.5-0.7-3.7-1.5-5-1.8c-0.4-0.1-1.2-0.1-1.7-0.1c-1,0.1-1,0,0.7-0.8c1.4-0.6,2.5-1,4.1-1.4c1.8-0.4,5-0.4,6.8,0 c1.9,0.4,4.1,1.2,5.3,2L29.1,5l-0.8,0c-1.7-0.1-4.1,0.6-6.7,1.9C20.7,7.2,20,7.5,20,7.5C19.9,7.5,19.3,7.1,18.5,6.8z" />
    </symbol>
    <symbol id="youtube" viewBox="0 0 40 40">
        <path
            d="M37.6,27.1c0,0-0.3,2.4-1.4,3.5c-1.4,1.4-2.9,1.4-3.6,1.5c-5,0.4-12.4,0.4-12.4,0.4s-9.2-0.1-12.1-0.4 c-0.8-0.1-2.6-0.1-3.9-1.5c-1.1-1.1-1.4-3.5-1.4-3.5s-0.4-2.9-0.4-5.7v-2.7c0-2.9,0.4-5.7,0.4-5.7s0.3-2.4,1.4-3.5 C5.5,8,7,8,7.7,7.9c5-0.4,12.4-0.4,12.4-0.4h0c0,0,7.5,0,12.4,0.4C33.3,8,34.8,8,36.2,9.4c1.1,1.1,1.4,3.5,1.4,3.5s0.4,2.9,0.4,5.7 v2.7C37.9,24.2,37.6,27.1,37.6,27.1z M16.5,14.6l0,9.9l9.6-5L16.5,14.6z" />
    </symbol>
    <symbol id="facebook" viewBox="0 0 40 40">
        <path
            d="M24 12.073c0-6.627-5.373-12-12-12s-12 5.373-12 12c0 5.99 4.388 10.954 10.125 11.854v-8.385H7.078v-3.47h3.047V9.43c0-3.007 1.792-4.669 4.533-4.669 1.312 0 2.686.235 2.686.235v2.953H15.83c-1.491 0-1.956.925-1.956 1.874v2.25h3.328l-.532 3.47h-2.796v8.385C19.612 23.027 24 18.062 24 12.073z" />
    </symbol>
    <symbol id="reddit" viewBox="0 0 40 40">
        <path
            d="M37.3,18.9c0,0.7-0.2,1.4-0.6,2c-0.4,0.6-0.9,1.1-1.5,1.4c0.2,0.6,0.2,1.2,0.2,1.9c0,2-0.7,3.8-2.1,5.5 c-1.4,1.7-3.2,3-5.6,4s-4.9,1.5-7.7,1.5c-2.8,0-5.4-0.5-7.7-1.5s-4.2-2.3-5.6-4c-1.4-1.7-2.1-3.6-2.1-5.5c0-0.6,0.1-1.2,0.2-1.8 c-0.7-0.3-1.2-0.8-1.6-1.4c-0.4-0.6-0.6-1.3-0.6-2.1c0-1.1,0.4-2,1.1-2.7c0.7-0.8,1.7-1.1,2.7-1.1c1.1,0,2,0.4,2.8,1.2 c2.8-2,6.1-3,10-3.1l2.2-10.1c0-0.2,0.1-0.3,0.3-0.4c0.2-0.1,0.3-0.1,0.5-0.1l7.1,1.6c0.2-0.5,0.6-0.9,1-1.2c0.5-0.3,1-0.4,1.5-0.4 c0.8,0,1.5,0.3,2,0.8c0.6,0.6,0.9,1.2,0.9,2c0,0.8-0.3,1.5-0.9,2c-0.6,0.6-1.3,0.9-2,0.9c-0.8,0-1.5-0.3-2-0.8s-0.8-1.2-0.8-2 L22.7,4l-2,9.1c3.9,0.1,7.2,1.1,10,3.1c0.7-0.8,1.7-1.2,2.8-1.2c1.1,0,2,0.4,2.7,1.1C36.9,16.9,37.3,17.9,37.3,18.9L37.3,18.9z M10.7,22.8c0,0.8,0.3,1.5,0.8,2c0.6,0.6,1.2,0.9,2,0.9c0.8,0,1.5-0.3,2-0.9c0.6-0.6,0.9-1.3,0.9-2c0-0.8-0.3-1.5-0.9-2 c-0.6-0.6-1.3-0.8-2-0.8c-0.8,0-1.5,0.3-2,0.9C11,21.3,10.7,22,10.7,22.8z M26.4,29.6c0.1-0.1,0.2-0.3,0.2-0.5 c0-0.2-0.1-0.4-0.2-0.5c-0.1-0.1-0.3-0.2-0.5-0.2c-0.2,0-0.4,0.1-0.5,0.2c-0.5,0.5-1.3,0.9-2.3,1.2c-1,0.3-2.1,0.4-3.1,0.4 c-1,0-2.1-0.1-3.1-0.4c-1-0.3-1.8-0.7-2.3-1.2c-0.1-0.1-0.3-0.2-0.5-0.2c-0.2,0-0.4,0.1-0.5,0.2c-0.1,0.1-0.2,0.3-0.2,0.5 c0,0.2,0.1,0.4,0.2,0.5c0.6,0.6,1.3,1,2.3,1.3c1,0.3,1.8,0.5,2.4,0.6c0.6,0.1,1.2,0.1,1.8,0.1s1.2,0,1.8-0.1 c0.6-0.1,1.4-0.2,2.4-0.6C25.1,30.6,25.8,30.2,26.4,29.6L26.4,29.6z M26.3,25.7c0.8,0,1.5-0.3,2-0.9c0.6-0.6,0.8-1.3,0.8-2 c0-0.8-0.3-1.5-0.9-2c-0.6-0.6-1.2-0.9-2-0.9c-0.8,0-1.5,0.3-2,0.8s-0.9,1.2-0.9,2c0,0.8,0.3,1.5,0.9,2 C24.9,25.4,25.5,25.7,26.3,25.7z" />
    </symbol>
    <symbol id="linkedin" viewBox="0 0 40 40">
        <path
            d="M218.123122,218.127392 L180.191928,218.127392 L180.191928,158.724263 C180.191928,144.559023 179.939053,126.323993 160.463756,126.323993 C140.707926,126.323993 137.685284,141.757585 137.685284,157.692986 L137.685284,218.123441 L99.7540894,218.123441 L99.7540894,95.9665207 L136.168036,95.9665207 L136.168036,112.660562 L136.677736,112.660562 C144.102746,99.9650027 157.908637,92.3824528 172.605689,92.9280076 C211.050535,92.9280076 218.138927,118.216023 218.138927,151.114151 L218.123122,218.127392 Z M56.9550587,79.2685282 C44.7981969,79.2707099 34.9413443,69.4171797 34.9391618,57.260052 C34.93698,45.1029244 44.7902948,35.2458562 56.9471566,35.2436736 C69.1040185,35.2414916 78.9608713,45.0950217 78.963054,57.2521493 C78.9641017,63.090208 76.6459976,68.6895714 72.5186979,72.8184433 C68.3913982,76.9473153 62.7929898,79.26748 56.9550587,79.2685282 M75.9206558,218.127392 L37.94995,218.127392 L37.94995,95.9665207 L75.9206558,95.9665207 L75.9206558,218.127392 Z M237.033403,0.0182577091 L18.8895249,0.0182577091 C8.57959469,-0.0980923971 0.124827038,8.16056231 -0.001,18.4706066 L-0.001,237.524091 C0.120519052,247.839103 8.57460631,256.105934 18.8895249,255.9977 L237.033403,255.9977 C247.368728,256.125818 255.855922,247.859464 255.999,237.524091 L255.999,18.4548016 C255.851624,8.12438979 247.363742,-0.133792868 237.033403,0.000790807055" />
    </symbol>
    <symbol id="github" viewBox="0 0 40 40">
        <path
            d="M12 0C5.37 0 0 5.37 0 12c0 5.31 3.435 9.795 8.205 11.385c.6.105.825-.255.825-.57c0-.285-.015-1.23-.015-2.235c-3.015.555-3.795-.735-4.035-1.41c-.135-.345-.72-1.41-1.23-1.695c-.42-.225-1.02-.78-.015-.795c.945-.015 1.62.87 1.845 1.23c1.08 1.815 2.805 1.305 3.495.99c.105-.78.42-1.305.765-1.605c-2.67-.3-5.46-1.335-5.46-5.925c0-1.305.465-2.385 1.23-3.225c-.12-.3-.54-1.53.12-3.18c0 0 1.005-.315 3.3 1.23c.96-.27 1.98-.405 3-.405s2.04.135 3 .405c2.295-1.56 3.3-1.23 3.3-1.23c.66 1.65.24 2.88.12 3.18c.765.84 1.23 1.905 1.23 3.225c0 4.605-2.805 5.625-5.475 5.925c.435.375.81 1.095.81 2.22c0 1.605-.015 2.895-.015 3.3c0 .315.225.69.825.57A12.02 12.02 0 0 0 24 12c0-6.63-5.37-12-12-12z" />
    </symbol>
    <symbol id="google" viewBox="0 0 40 40">
        <path
            d="M12 0C5.372 0 0 5.373 0 12s5.372 12 12 12c6.627 0 12-5.373 12-12S18.627 0 12 0zm.14 19.018c-3.868 0-7-3.14-7-7.018c0-3.878 3.132-7.018 7-7.018c1.89 0 3.47.697 4.682 1.829l-1.974 1.978v-.004c-.735-.702-1.667-1.062-2.708-1.062c-2.31 0-4.187 1.956-4.187 4.273c0 2.315 1.877 4.277 4.187 4.277c2.096 0 3.522-1.202 3.816-2.852H12.14v-2.737h6.585c.088.47.135.96.135 1.474c0 4.01-2.677 6.86-6.72 6.86z" />
    </symbol>
</svg>